<svg xmlns="http://www.w3.org/2000/svg" viewBox="0 0 22 22">
  <defs>
    <style type="text/css" id="current-color-scheme">
      .ColorScheme-Text { color:#4d4d4d; }
      .ColorScheme-Highlight { color:#1892d2; }
    </style>
  </defs>
  <path d="M10 2h1v1h-1zM11 2h1v1h-1z" class="ColorScheme-Highlight" style="fill:currentColor;opacity:0.5"/>
  <path d="M8 3h1v1h-1zM13 3h1v1h-1zM3 8h1v1h-1zM18 8h1v1h-1zM3 13h1v1h-1zM18 13h1v1h-1zM8 18h1v1h-1zM13 18h1v1h-1z" class="ColorScheme-Text" style="fill:currentColor;opacity:0.54"/>
  <path d="M9 3h1v1h-1zM12 3h1v1h-1zM9 4h1v1h-1zM12 4h1v1h-1z" style="fill:#397fd2"/>
  <path d="M10 3h1v1h-1zM11 3h1v1h-1zM10 4h1v1h-1zM11 4h1v1h-1z" class="ColorScheme-Highlight" style="fill:currentColor"/>
  <path d="M6 4h1v1h-1zM15 4h1v1h-1zM4 6h1v1h-1zM17 6h1v1h-1zM4 15h1v1h-1zM17 15h1v1h-1zM6 17h1v1h-1zM15 17h1v1h-1z" class="ColorScheme-Text" style="fill:currentColor;opacity:0.5"/>
  <path d="M7 4h1v1h-1zM8 4h1v1h-1zM13 4h1v1h-1zM14 4h1v1h-1zM6 5h1v1h-1zM7 5h1v1h-1zM14 5h1v1h-1zM15 5h1v1h-1zM5 6h1v1h-1zM6 6h1v1h-1zM15 6h1v1h-1zM16 6h1v1h-1zM4 7h1v1h-1zM5 7h1v1h-1zM16 7h1v1h-1zM17 7h1v1h-1zM4 8h1v1h-1zM17 8h1v1h-1zM3 9h1v1h-1zM4 9h1v1h-1zM17 9h1v1h-1zM18 9h1v1h-1zM3 10h1v1h-1zM4 10h1v1h-1zM17 10h1v1h-1zM18 10h1v1h-1zM3 11h1v1h-1zM4 11h1v1h-1zM17 11h1v1h-1zM18 11h1v1h-1zM3 12h1v1h-1zM4 12h1v1h-1zM17 12h1v1h-1zM18 12h1v1h-1zM4 13h1v1h-1zM17 13h1v1h-1zM4 14h1v1h-1zM5 14h1v1h-1zM16 14h1v1h-1zM17 14h1v1h-1zM5 15h1v1h-1zM6 15h1v1h-1zM15 15h1v1h-1zM16 15h1v1h-1zM6 16h1v1h-1zM7 16h1v1h-1zM14 16h1v1h-1zM15 16h1v1h-1zM7 17h1v1h-1zM8 17h1v1h-1zM9 17h1v1h-1zM10 17h1v1h-1zM11 17h1v1h-1zM12 17h1v1h-1zM13 17h1v1h-1zM14 17h1v1h-1zM9 18h1v1h-1zM10 18h1v1h-1zM11 18h1v1h-1zM12 18h1v1h-1z" class="ColorScheme-Text" style="fill:currentColor"/>
  <path d="M5 5h1v1h-1zM16 5h1v1h-1zM5 16h1v1h-1z" class="ColorScheme-Text" style="fill:currentColor;opacity:0.67"/>
  <path d="M8 5h1v1h-1zM13 5h1v1h-1zM5 8h1v1h-1zM16 8h1v1h-1zM5 13h1v1h-1zM16 13h1v1h-1zM8 16h1v1h-1zM13 16h1v1h-1z" class="ColorScheme-Text" style="fill:currentColor;opacity:0.56"/>
  <path d="M9 5h1v1h-1zM12 5h1v1h-1z" style="fill:#397fd2;opacity:0.39"/>
  <path d="M10 5h1v1h-1zM11 5h1v1h-1z" class="ColorScheme-Highlight" style="fill:currentColor;opacity:0.52"/>
  <path d="M16 16h1v1h-1z" class="ColorScheme-Text" style="fill:currentColor;opacity:0.66"/>
</svg>
