<svg xmlns="http://www.w3.org/2000/svg" viewBox="0 0 16 16">
  <defs>
    <style type="text/css" id="current-color-scheme">
      .ColorScheme-Text { color:#4d4d4d; }
    </style>
  </defs>
  <path d="M7 3h1v1h-1zM8 3h1v1h-1zM7 4h1v1h-1zM5 5h1v1h-1zM6 5h1v1h-1zM8 5h1v1h-1zM9 5h1v1h-1zM4 6h1v1h-1zM8 6h1v1h-1zM9 6h1v1h-1zM10 6h1v1h-1zM4 7h1v1h-1zM8 7h1v1h-1zM9 7h1v1h-1zM10 7h1v1h-1zM11 7h1v1h-1zM11 8h1v1h-1zM11 9h1v1h-1zM4 10h1v1h-1zM11 10h1v1h-1zM5 11h1v1h-1zM10 11h1v1h-1zM6 12h1v1h-1zM7 12h1v1h-1zM8 12h1v1h-1zM9 12h1v1h-1z" class="ColorScheme-Text" style="fill:currentColor"/>
  <path d="M6 4h1v1h-1zM3 7h1v1h-1z" class="ColorScheme-Text" style="fill:currentColor;opacity:0.42"/>
  <path d="M8 4h1v1h-1zM8 8h1v1h-1zM9 8h1v1h-1zM10 8h1v1h-1z" class="ColorScheme-Text" style="fill:currentColor;opacity:0.67"/>
  <path d="M9 4h1v1h-1zM10 10h1v1h-1zM9 11h1v1h-1z" class="ColorScheme-Text" style="fill:currentColor;opacity:0.31"/>
  <path d="M11 4h1v1h-1z" class="ColorScheme-Text" style="fill:currentColor;opacity:0.64"/>
  <path d="M7 5h1v1h-1zM4 8h1v1h-1z" class="ColorScheme-Text" style="fill:currentColor;opacity:0.57"/>
  <path d="M10 5h1v1h-1zM4 11h1v1h-1z" class="ColorScheme-Text" style="fill:currentColor;opacity:0.69"/>
  <path d="M11 5h1v1h-1zM11 6h1v1h-1zM5 12h1v1h-1z" class="ColorScheme-Text" style="fill:currentColor;opacity:0.58"/>
  <path d="M5 6h1v1h-1z" class="ColorScheme-Text" style="fill:currentColor;opacity:0.48"/>
  <path d="M3 8h1v1h-1zM4 9h1v1h-1z" class="ColorScheme-Text" style="fill:currentColor;opacity:0.63"/>
  <path d="M3 9h1v1h-1z" class="ColorScheme-Text" style="fill:currentColor;opacity:0.56"/>
  <path d="M3 10h1v1h-1z" class="ColorScheme-Text" style="fill:currentColor;opacity:0.3"/>
  <path d="M11 11h1v1h-1zM10 12h1v1h-1z" class="ColorScheme-Text" style="fill:currentColor;opacity:0.35"/>
</svg>
